<svg version="1.1" id="Layer_1" xmlns="http://www.w3.org/2000/svg" xmlns:xlink="http://www.w3.org/1999/xlink" x="0px" y="0px"
	 width="100%" viewBox="0 0 500 500" enable-background="new 0 0 500 500" xml:space="preserve">
<path fill="#FFFFFF" opacity="1.000000" stroke="none" 
	d="
M324.000000,501.000000 
	C216.000031,501.000000 108.500053,501.000000 1.000058,501.000000 
	C1.000038,334.333405 1.000038,167.666794 1.000019,1.000147 
	C167.666565,1.000098 334.333130,1.000098 500.999756,1.000049 
	C500.999847,167.666519 500.999847,334.333038 500.999939,500.999786 
	C442.166656,501.000000 383.333344,501.000000 324.000000,501.000000 
M271.874878,296.065216 
	C272.504089,295.833008 273.133301,295.600830 274.628998,295.825775 
	C303.594940,295.897369 332.560852,295.986298 361.526825,296.034454 
	C380.840607,296.066589 400.156982,295.870758 419.466461,296.160339 
	C424.274780,296.232452 425.526367,294.635345 425.166870,290.202515 
	C424.831451,286.067261 425.198029,281.880219 425.068054,277.721802 
	C424.919434,272.966461 426.324127,266.350128 423.811737,263.981873 
	C421.206879,261.526398 414.719910,263.189178 409.674042,262.140686 
	C409.674042,257.233459 409.674042,252.326248 409.674042,247.116974 
	C384.850983,247.116974 360.925934,247.116974 337.087982,246.423462 
	C338.102356,245.566040 339.082733,244.664185 340.136139,243.857742 
	C362.345184,226.854767 384.602631,209.914276 406.695831,192.762238 
	C408.322876,191.499069 409.617065,188.736664 409.644745,186.652390 
	C409.876953,169.159973 409.784729,151.663147 409.760651,134.167679 
	C409.758881,132.884384 409.526794,131.601395 409.360352,129.893051 
	C404.115784,129.893051 399.146332,129.893051 394.030426,128.981506 
	C394.030426,124.051193 394.030426,119.120880 394.030426,114.279381 
	C298.326324,114.279381 203.252106,114.279381 108.235489,114.279381 
	C108.235489,134.631241 108.235489,154.701187 108.235489,175.085037 
	C113.328568,175.085037 118.137657,175.085037 123.205986,175.977356 
	C123.234047,178.639389 123.280693,181.301361 123.286537,183.963455 
	C123.301720,190.884476 123.294579,190.880081 130.392029,190.887070 
	C170.334442,190.926453 210.276840,190.968109 249.907715,191.628937 
	C226.905716,209.237762 203.948120,226.905380 180.829254,244.359406 
	C178.650360,246.004395 175.463455,247.086426 172.733612,247.109039 
	C147.735748,247.316086 122.735489,247.230820 97.735924,247.230820 
	C95.997643,247.230820 94.259354,247.230820 92.554199,247.230820 
	C92.554199,258.684113 92.554199,269.300690 92.554199,280.562317 
	C97.755936,280.562317 102.715950,280.562317 107.937073,281.391296 
	C107.937073,285.988281 107.937073,290.585236 107.937073,295.376892 
	C110.036552,295.689636 111.473717,295.903748 112.429451,296.736115 
	C110.203415,298.568207 107.769562,299.791901 107.827301,303.657318 
	C108.100487,321.946594 107.945259,340.242249 107.961983,358.535614 
	C107.962822,359.453857 108.143379,360.371887 108.232803,361.219452 
	C113.765846,361.498260 118.878075,361.755890 123.799324,362.931274 
	C123.799324,367.505219 123.799324,372.079132 123.799324,376.738037 
	C219.448929,376.738037 314.310883,376.738037 409.421326,376.738037 
	C409.421326,356.441986 409.421326,336.410706 409.421326,315.915283 
	C404.085632,315.915283 399.111786,315.915283 394.005798,314.999756 
	C394.005798,310.096100 394.005798,305.192413 394.005798,300.162354 
	C364.297791,300.162354 335.372620,300.184418 306.447540,300.152405 
	C293.315613,300.137878 280.183838,300.016083 267.376190,299.410950 
	C268.658356,298.349457 269.940521,297.287964 271.874878,296.065216 
z"/>
<path fill="#010101" opacity="1.000000" stroke="none" 
	d="
M267.051971,299.942963 
	C280.183838,300.016083 293.315613,300.137878 306.447540,300.152405 
	C335.372620,300.184418 364.297791,300.162354 394.005798,300.162354 
	C394.005798,305.192413 394.005798,310.096100 394.013916,315.928467 
	C394.022034,331.612762 394.022034,346.368347 394.022034,361.590454 
	C391.493530,361.590454 389.525848,361.590454 387.558136,361.590454 
	C301.844421,361.590454 216.130692,361.587402 130.416977,361.608154 
	C128.274719,361.608673 126.132523,361.872498 123.990295,362.013489 
	C118.878075,361.755890 113.765846,361.498260 108.232803,361.219452 
	C108.143379,360.371887 107.962822,359.453857 107.961983,358.535614 
	C107.945259,340.242249 108.100487,321.946594 107.827301,303.657318 
	C107.769562,299.791901 110.203415,298.568207 112.973801,296.404694 
	C120.053329,291.074402 126.588509,286.075531 133.796127,280.562317 
	C124.418953,280.562317 116.047455,280.562317 107.675957,280.562317 
	C102.715950,280.562317 97.755936,280.562317 92.554199,280.562317 
	C92.554199,269.300690 92.554199,258.684113 92.554199,247.230820 
	C94.259354,247.230820 95.997643,247.230820 97.735924,247.230820 
	C122.735489,247.230820 147.735748,247.316086 172.733612,247.109039 
	C175.463455,247.086426 178.650360,246.004395 180.829254,244.359406 
	C203.948120,226.905380 226.905716,209.237762 250.395233,191.282684 
	C257.425995,185.871201 263.969238,180.805984 271.359558,175.085037 
	C220.987610,175.085037 171.967178,175.085037 122.946747,175.085037 
	C118.137657,175.085037 113.328568,175.085037 108.235489,175.085037 
	C108.235489,154.701187 108.235489,134.631241 108.235489,114.279381 
	C203.252106,114.279381 298.326324,114.279381 394.030426,114.279381 
	C394.030426,119.120880 394.030426,124.051193 394.027252,129.907394 
	C394.014557,144.133972 393.886536,157.436386 394.080780,170.734100 
	C394.127960,173.961243 393.006989,175.865479 390.532257,177.744934 
	C361.948486,199.452957 333.437195,221.256409 304.918549,243.050125 
	C303.559082,244.089005 302.310822,245.273392 300.164368,247.116974 
	C313.262207,247.116974 325.131561,247.116974 337.000916,247.116974 
	C360.925934,247.116974 384.850983,247.116974 409.674042,247.116974 
	C409.674042,252.326248 409.674042,257.233459 409.666870,263.044037 
	C409.659729,269.242676 409.659729,274.537964 409.659729,280.369843 
	C407.290466,280.369843 405.496307,280.369843 403.702148,280.369843 
	C368.379974,280.369843 333.057800,280.361877 297.735626,280.389374 
	C295.585358,280.391052 293.435272,280.674164 290.835846,280.620880 
	C279.806274,280.345154 269.225983,280.248688 258.645630,280.243713 
	C257.547333,280.243195 256.218048,280.486267 255.387405,281.125244 
	C249.525314,285.634827 243.765671,290.277618 237.649368,295.001648 
	C235.350769,296.484558 233.376129,297.843719 230.326187,299.942963 
	C243.471619,299.942963 255.261795,299.942963 267.051971,299.942963 
z"/>
<path fill="#999999" opacity="1.000000" stroke="none" 
	d="
M123.894806,362.472382 
	C126.132523,361.872498 128.274719,361.608673 130.416977,361.608154 
	C216.130692,361.587402 301.844421,361.590454 387.558136,361.590454 
	C389.525848,361.590454 391.493530,361.590454 394.022034,361.590454 
	C394.022034,346.368347 394.022034,331.612762 394.080017,316.386230 
	C399.111786,315.915283 404.085632,315.915283 409.421326,315.915283 
	C409.421326,336.410706 409.421326,356.441986 409.421326,376.738037 
	C314.310883,376.738037 219.448929,376.738037 123.799324,376.738037 
	C123.799324,372.079132 123.799324,367.505219 123.894806,362.472382 
z"/>
<path fill="#989898" opacity="1.000000" stroke="none" 
	d="
M337.044434,246.770218 
	C325.131561,247.116974 313.262207,247.116974 300.164368,247.116974 
	C302.310822,245.273392 303.559082,244.089005 304.918549,243.050125 
	C333.437195,221.256409 361.948486,199.452957 390.532257,177.744934 
	C393.006989,175.865479 394.127960,173.961243 394.080780,170.734100 
	C393.886536,157.436386 394.014557,144.133972 394.100464,130.363159 
	C399.146332,129.893051 404.115784,129.893051 409.360352,129.893051 
	C409.526794,131.601395 409.758881,132.884384 409.760651,134.167679 
	C409.784729,151.663147 409.876953,169.159973 409.644745,186.652390 
	C409.617065,188.736664 408.322876,191.499069 406.695831,192.762238 
	C384.602631,209.914276 362.345184,226.854767 340.136139,243.857742 
	C339.082733,244.664185 338.102356,245.566040 337.044434,246.770218 
z"/>
<path fill="#9B9B9B" opacity="1.000000" stroke="none" 
	d="
M291.285095,280.826324 
	C293.435272,280.674164 295.585358,280.391052 297.735626,280.389374 
	C333.057800,280.361877 368.379974,280.369843 403.702148,280.369843 
	C405.496307,280.369843 407.290466,280.369843 409.659729,280.369843 
	C409.659729,274.537964 409.659729,269.242676 409.795288,263.499084 
	C414.719910,263.189178 421.206879,261.526398 423.811737,263.981873 
	C426.324127,266.350128 424.919434,272.966461 425.068054,277.721802 
	C425.198029,281.880219 424.831451,286.067261 425.166870,290.202515 
	C425.526367,294.635345 424.274780,296.232452 419.466461,296.160339 
	C400.156982,295.870758 380.840607,296.066589 361.526825,296.034454 
	C332.560852,295.986298 303.594940,295.897369 274.288910,295.299744 
	C279.727570,290.124573 285.506317,285.475433 291.285095,280.826324 
z"/>
<path fill="#9A9A9A" opacity="1.000000" stroke="none" 
	d="
M123.076370,175.531189 
	C171.967178,175.085037 220.987610,175.085037 271.359558,175.085037 
	C263.969238,180.805984 257.425995,185.871201 250.550995,190.972702 
	C210.276840,190.968109 170.334442,190.926453 130.392029,190.887070 
	C123.294579,190.880081 123.301720,190.884476 123.286537,183.963455 
	C123.280693,181.301361 123.234047,178.639389 123.076370,175.531189 
z"/>
<path fill="#595959" opacity="1.000000" stroke="none" 
	d="
M290.835846,280.620880 
	C285.506317,285.475433 279.727570,290.124573 273.855652,295.071167 
	C273.133301,295.600830 272.504089,295.833008 271.069885,296.062683 
	C261.182434,296.035797 252.099167,296.066528 243.018158,295.937714 
	C241.331863,295.913818 239.654694,295.247650 237.973312,294.877869 
	C243.765671,290.277618 249.525314,285.634827 255.387405,281.125244 
	C256.218048,280.486267 257.547333,280.243195 258.645630,280.243713 
	C269.225983,280.248688 279.806274,280.345154 290.835846,280.620880 
z"/>
<path fill="#808080" opacity="1.000000" stroke="none" 
	d="
M107.806519,280.976807 
	C116.047455,280.562317 124.418953,280.562317 133.796127,280.562317 
	C126.588509,286.075531 120.053329,291.074402 113.214523,296.095581 
	C111.473717,295.903748 110.036552,295.689636 107.937073,295.376892 
	C107.937073,290.585236 107.937073,285.988281 107.806519,280.976807 
z"/>
<path fill="#959595" opacity="1.000000" stroke="none" 
	d="
M237.649368,295.001648 
	C239.654694,295.247650 241.331863,295.913818 243.018158,295.937714 
	C252.099167,296.066528 261.182434,296.035797 270.743805,296.143280 
	C269.940521,297.287964 268.658356,298.349457 267.214081,299.676941 
	C255.261795,299.942963 243.471619,299.942963 230.326187,299.942963 
	C233.376129,297.843719 235.350769,296.484558 237.649368,295.001648 
z"/>
</svg>