<svg version="1.1" id="Layer_1" xmlns="http://www.w3.org/2000/svg" xmlns:xlink="http://www.w3.org/1999/xlink" x="0px" y="0px"
	 width="100%" viewBox="0 0 500 500" enable-background="new 0 0 500 500" xml:space="preserve">
<path fill="#004AAD" opacity="1.000000" stroke="none" 
	d="
M346.000000,501.000000 
	C230.666687,501.000000 115.833389,501.000000 1.000062,501.000000 
	C1.000041,334.333405 1.000041,167.666794 1.000021,1.000151 
	C167.666550,1.000101 334.333099,1.000101 500.999756,1.000050 
	C500.999817,167.666519 500.999817,334.333038 500.999908,500.999786 
	C449.500000,501.000000 398.000000,501.000000 346.000000,501.000000 
M333.867218,195.373535 
	C354.112396,173.477097 374.303436,151.530060 394.666077,129.743423 
	C397.447906,126.767090 398.785095,123.871773 397.509918,119.479683 
	C395.511688,119.479683 393.376038,119.479683 391.240417,119.479683 
	C326.090973,119.479683 260.941528,119.479683 195.792084,119.479683 
	C183.486557,119.479683 183.475174,119.475822 179.458664,131.347321 
	C174.253265,146.732697 169.068298,162.124985 163.872742,177.519638 
	C168.564148,178.990417 171.512146,177.797180 172.731384,173.161560 
	C173.066635,171.886871 173.671432,170.673981 174.229782,169.468506 
	C180.772552,155.342239 189.238251,142.563705 204.976334,138.020294 
	C215.076172,135.104568 225.856049,133.499832 236.374039,133.269714 
	C270.183868,132.529999 304.013611,132.698624 337.835785,132.537231 
	C338.900208,132.532150 339.965698,132.749588 341.788055,132.944168 
	C340.112671,134.887955 339.002472,136.256226 337.809723,137.548279 
	C267.858551,213.322754 197.916763,289.105927 127.888794,364.809357 
	C124.840012,368.105225 123.063339,371.331207 124.330643,375.874542 
	C124.872261,375.979797 125.345474,376.152252 125.818726,376.152344 
	C197.799667,376.168915 269.780609,376.159088 341.761505,376.231781 
	C344.448364,376.234497 345.463654,375.267609 346.204987,372.774841 
	C348.667572,364.494781 351.430420,356.304138 354.067841,348.075928 
	C357.993896,335.827606 361.911224,323.576447 365.826111,311.345642 
	C360.805603,309.714966 358.615265,311.535400 356.812531,315.860016 
	C350.937073,329.954529 342.542999,342.113129 328.730988,349.771149 
	C314.270874,357.788574 298.512634,361.393250 282.301605,361.837433 
	C248.834961,362.754547 215.343536,362.768158 181.861954,363.121704 
	C181.154953,363.129181 180.443909,362.752228 179.311981,362.436798 
	C230.902359,306.665039 282.140381,251.274185 333.867218,195.373535 
z"/>
<path fill="#FBFCFE" opacity="1.000000" stroke="none" 
	d="
M333.622803,195.628448 
	C282.140381,251.274185 230.902359,306.665039 179.311981,362.436798 
	C180.443909,362.752228 181.154953,363.129181 181.861954,363.121704 
	C215.343536,362.768158 248.834961,362.754547 282.301605,361.837433 
	C298.512634,361.393250 314.270874,357.788574 328.730988,349.771149 
	C342.542999,342.113129 350.937073,329.954529 356.812531,315.860016 
	C358.615265,311.535400 360.805603,309.714966 365.826111,311.345642 
	C361.911224,323.576447 357.993896,335.827606 354.067841,348.075928 
	C351.430420,356.304138 348.667572,364.494781 346.204987,372.774841 
	C345.463654,375.267609 344.448364,376.234497 341.761505,376.231781 
	C269.780609,376.159088 197.799667,376.168915 125.818726,376.152344 
	C125.345474,376.152252 124.872261,375.979797 124.330643,375.874542 
	C123.063339,371.331207 124.840012,368.105225 127.888794,364.809357 
	C197.916763,289.105927 267.858551,213.322754 337.809723,137.548279 
	C339.002472,136.256226 340.112671,134.887955 341.788055,132.944168 
	C339.965698,132.749588 338.900208,132.532150 337.835785,132.537231 
	C304.013611,132.698624 270.183868,132.529999 236.374039,133.269714 
	C225.856049,133.499832 215.076172,135.104568 204.976334,138.020294 
	C189.238251,142.563705 180.772552,155.342239 174.229782,169.468506 
	C173.671432,170.673981 173.066635,171.886871 172.731384,173.161560 
	C171.512146,177.797180 168.564148,178.990417 163.872742,177.519638 
	C169.068298,162.124985 174.253265,146.732697 179.458664,131.347321 
	C183.475174,119.475822 183.486557,119.479683 195.792084,119.479683 
	C260.941528,119.479683 326.090973,119.479683 391.240417,119.479683 
	C393.376038,119.479683 395.511688,119.479683 397.509918,119.479683 
	C398.785095,123.871773 397.447906,126.767090 394.666077,129.743423 
	C374.303436,151.530060 354.112396,173.477097 333.622803,195.628448 
z"/>
</svg>